# xmcd CD database file
#
# Track frame offsets:
#	150
#	16408
#	36319
#	54357
#	69620
#	90539
#	110664
#	127671
#	148799
#	167308
#
# Disc length: 2517 seconds
#
# Revision: 0
# Processed by: cddbd v1.5.2PL0 Copyright (c) Steve Scherf et al.
# Submitted via: CDex 1.70beta1
#
DISCID=7e09d30a
DTITLE=Richie Kamuca - Jazz Erotica
DYEAR=2008
DGENRE=Jazz
TTITLE0='Way Down Under
TTITLE1=Blue Jazz
TTITLE2=Angel Eyes
TTITLE3=Stella By Starlight
TTITLE4=Star Eyes
TTITLE5=I Hadn't Anyone Till You
TTITLE6=Linger Awhile
TTITLE7=The Things We Did Last Summer
TTITLE8=If You Were No One
TTITLE9=Indiana
EXTD=YEAR: 2008
EXTT0=
EXTT1=
EXTT2=
EXTT3=
EXTT4=
EXTT5=
EXTT6=
EXTT7=
EXTT8=
EXTT9=
PLAYORDER=
